<mxfile host="65bd71144e" modified="2021-02-08T09:45:56.260Z" agent="5.0 (Macintosh; Intel Mac OS X 11_0_0) AppleWebKit/537.36 (KHTML, like Gecko) Code/1.52.1 Chrome/83.0.4103.122 Electron/9.3.5 Safari/537.36" etag="zfOsWS9low_YY_VoqilJ" version="13.10.0" type="embed">
    <diagram id="p36Yqyrogv8A9jEpyJuB" name="Page-1">
        <mxGraphModel dx="820" dy="713" grid="1" gridSize="10" guides="1" tooltips="1" connect="1" arrows="1" fold="1" page="1" pageScale="1" pageWidth="850" pageHeight="1100" math="0" shadow="0">
            <root>
                <mxCell id="0"/>
                <mxCell id="1" parent="0"/>
                <mxCell id="2" value="" style="shape=umlLifeline;participant=umlActor;perimeter=lifelinePerimeter;whiteSpace=wrap;html=1;container=1;collapsible=0;recursiveResize=0;verticalAlign=top;spacingTop=36;outlineConnect=0;" parent="1" vertex="1">
                    <mxGeometry x="60" y="60" width="20" height="300" as="geometry"/>
                </mxCell>
                <mxCell id="5" value="" style="html=1;points=[];perimeter=orthogonalPerimeter;" parent="2" vertex="1">
                    <mxGeometry x="5" y="90" width="10" height="130" as="geometry"/>
                </mxCell>
                <mxCell id="3" value=":Controller" style="shape=umlLifeline;perimeter=lifelinePerimeter;whiteSpace=wrap;html=1;container=1;collapsible=0;recursiveResize=0;outlineConnect=0;" parent="1" vertex="1">
                    <mxGeometry x="230" y="60" width="100" height="300" as="geometry"/>
                </mxCell>
                <mxCell id="6" value="" style="html=1;points=[];perimeter=orthogonalPerimeter;" parent="3" vertex="1">
                    <mxGeometry x="45" y="85" width="10" height="130" as="geometry"/>
                </mxCell>
                <mxCell id="4" value=":Turnier" style="shape=umlLifeline;perimeter=lifelinePerimeter;whiteSpace=wrap;html=1;container=1;collapsible=0;recursiveResize=0;outlineConnect=0;" parent="1" vertex="1">
                    <mxGeometry x="420" y="60" width="100" height="300" as="geometry"/>
                </mxCell>
                <mxCell id="7" value="" style="html=1;points=[];perimeter=orthogonalPerimeter;" parent="4" vertex="1">
                    <mxGeometry x="45" y="120" width="10" height="52.5" as="geometry"/>
                </mxCell>
                <mxCell id="9" value="/getTurniere" style="html=1;verticalAlign=bottom;endArrow=block;entryX=-0.1;entryY=0.154;entryDx=0;entryDy=0;entryPerimeter=0;" parent="1" source="5" target="6" edge="1">
                    <mxGeometry relative="1" as="geometry">
                        <mxPoint x="310" y="170" as="sourcePoint"/>
                        <mxPoint x="240" y="170" as="targetPoint"/>
                    </mxGeometry>
                </mxCell>
                <mxCell id="10" value="Antwort: Turniere" style="html=1;verticalAlign=bottom;endArrow=open;dashed=1;endSize=8;entryX=0.9;entryY=0.785;entryDx=0;entryDy=0;entryPerimeter=0;exitX=-0.1;exitY=0.808;exitDx=0;exitDy=0;exitPerimeter=0;" parent="1" source="6" target="5" edge="1">
                    <mxGeometry relative="1" as="geometry">
                        <mxPoint x="310" y="246" as="targetPoint"/>
                        <mxPoint x="260" y="248" as="sourcePoint"/>
                    </mxGeometry>
                </mxCell>
                <mxCell id="11" value="Turniere aus Model holen" style="html=1;verticalAlign=bottom;endArrow=block;entryX=-0.1;entryY=0.175;entryDx=0;entryDy=0;entryPerimeter=0;exitX=1.2;exitY=0.331;exitDx=0;exitDy=0;exitPerimeter=0;" parent="1" source="6" target="7" edge="1">
                    <mxGeometry relative="1" as="geometry">
                        <mxPoint x="85" y="175.01999999999998" as="sourcePoint"/>
                        <mxPoint x="284" y="175.01999999999998" as="targetPoint"/>
                    </mxGeometry>
                </mxCell>
                <mxCell id="13" value="Antwort: Turniere" style="html=1;verticalAlign=bottom;endArrow=open;dashed=1;endSize=8;entryX=1.1;entryY=0.592;entryDx=0;entryDy=0;entryPerimeter=0;exitX=0.1;exitY=0.778;exitDx=0;exitDy=0;exitPerimeter=0;" parent="1" source="7" target="6" edge="1">
                    <mxGeometry relative="1" as="geometry">
                        <mxPoint x="84" y="262.04999999999995" as="targetPoint"/>
                        <mxPoint x="284" y="260.03999999999996" as="sourcePoint"/>
                    </mxGeometry>
                </mxCell>
                <mxCell id="14" value="" style="shape=umlLifeline;participant=umlActor;perimeter=lifelinePerimeter;whiteSpace=wrap;html=1;container=1;collapsible=0;recursiveResize=0;verticalAlign=top;spacingTop=36;outlineConnect=0;" parent="1" vertex="1">
                    <mxGeometry x="60" y="400" width="20" height="300" as="geometry"/>
                </mxCell>
                <mxCell id="15" value="" style="html=1;points=[];perimeter=orthogonalPerimeter;" parent="14" vertex="1">
                    <mxGeometry x="5" y="90" width="10" height="130" as="geometry"/>
                </mxCell>
                <mxCell id="16" value=":Controller" style="shape=umlLifeline;perimeter=lifelinePerimeter;whiteSpace=wrap;html=1;container=1;collapsible=0;recursiveResize=0;outlineConnect=0;" parent="1" vertex="1">
                    <mxGeometry x="230" y="400" width="100" height="300" as="geometry"/>
                </mxCell>
                <mxCell id="17" value="" style="html=1;points=[];perimeter=orthogonalPerimeter;" parent="16" vertex="1">
                    <mxGeometry x="45" y="85" width="10" height="130" as="geometry"/>
                </mxCell>
                <mxCell id="18" value=":Turnier" style="shape=umlLifeline;perimeter=lifelinePerimeter;whiteSpace=wrap;html=1;container=1;collapsible=0;recursiveResize=0;outlineConnect=0;" parent="1" vertex="1">
                    <mxGeometry x="420" y="400" width="100" height="300" as="geometry"/>
                </mxCell>
                <mxCell id="19" value="" style="html=1;points=[];perimeter=orthogonalPerimeter;" parent="18" vertex="1">
                    <mxGeometry x="45" y="120" width="10" height="52.5" as="geometry"/>
                </mxCell>
                <mxCell id="20" value="/deleteTurnier/:id" style="html=1;verticalAlign=bottom;endArrow=block;entryX=-0.1;entryY=0.154;entryDx=0;entryDy=0;entryPerimeter=0;" parent="1" source="15" target="17" edge="1">
                    <mxGeometry relative="1" as="geometry">
                        <mxPoint x="310" y="510" as="sourcePoint"/>
                        <mxPoint x="240" y="510" as="targetPoint"/>
                    </mxGeometry>
                </mxCell>
                <mxCell id="21" value="Antwort: &quot;ok&quot;" style="html=1;verticalAlign=bottom;endArrow=open;dashed=1;endSize=8;entryX=0.9;entryY=0.785;entryDx=0;entryDy=0;entryPerimeter=0;exitX=-0.1;exitY=0.808;exitDx=0;exitDy=0;exitPerimeter=0;" parent="1" source="17" target="15" edge="1">
                    <mxGeometry relative="1" as="geometry">
                        <mxPoint x="310" y="586" as="targetPoint"/>
                        <mxPoint x="260" y="588" as="sourcePoint"/>
                    </mxGeometry>
                </mxCell>
                <mxCell id="22" value="Turnier aus DB entfernen" style="html=1;verticalAlign=bottom;endArrow=block;entryX=-0.1;entryY=0.175;entryDx=0;entryDy=0;entryPerimeter=0;exitX=1.2;exitY=0.331;exitDx=0;exitDy=0;exitPerimeter=0;" parent="1" source="17" target="19" edge="1">
                    <mxGeometry relative="1" as="geometry">
                        <mxPoint x="85" y="515.02" as="sourcePoint"/>
                        <mxPoint x="284" y="515.02" as="targetPoint"/>
                    </mxGeometry>
                </mxCell>
                <mxCell id="23" value="Antwort: &quot;ok&quot;" style="html=1;verticalAlign=bottom;endArrow=open;dashed=1;endSize=8;entryX=1.1;entryY=0.592;entryDx=0;entryDy=0;entryPerimeter=0;exitX=0.1;exitY=0.778;exitDx=0;exitDy=0;exitPerimeter=0;" parent="1" source="19" target="17" edge="1">
                    <mxGeometry relative="1" as="geometry">
                        <mxPoint x="84" y="602.05" as="targetPoint"/>
                        <mxPoint x="284" y="600.04" as="sourcePoint"/>
                    </mxGeometry>
                </mxCell>
                <mxCell id="24" value="" style="shape=umlLifeline;participant=umlActor;perimeter=lifelinePerimeter;whiteSpace=wrap;html=1;container=1;collapsible=0;recursiveResize=0;verticalAlign=top;spacingTop=36;outlineConnect=0;" parent="1" vertex="1">
                    <mxGeometry x="60" y="740" width="20" height="300" as="geometry"/>
                </mxCell>
                <mxCell id="25" value="" style="html=1;points=[];perimeter=orthogonalPerimeter;" parent="24" vertex="1">
                    <mxGeometry x="5" y="90" width="10" height="130" as="geometry"/>
                </mxCell>
                <mxCell id="26" value=":Controller" style="shape=umlLifeline;perimeter=lifelinePerimeter;whiteSpace=wrap;html=1;container=1;collapsible=0;recursiveResize=0;outlineConnect=0;" parent="1" vertex="1">
                    <mxGeometry x="230" y="740" width="100" height="300" as="geometry"/>
                </mxCell>
                <mxCell id="27" value="" style="html=1;points=[];perimeter=orthogonalPerimeter;" parent="26" vertex="1">
                    <mxGeometry x="45" y="85" width="10" height="130" as="geometry"/>
                </mxCell>
                <mxCell id="28" value=":Turnier" style="shape=umlLifeline;perimeter=lifelinePerimeter;whiteSpace=wrap;html=1;container=1;collapsible=0;recursiveResize=0;outlineConnect=0;" parent="1" vertex="1">
                    <mxGeometry x="480" y="740" width="100" height="300" as="geometry"/>
                </mxCell>
                <mxCell id="29" value="" style="html=1;points=[];perimeter=orthogonalPerimeter;" parent="28" vertex="1">
                    <mxGeometry x="45" y="120" width="10" height="52.5" as="geometry"/>
                </mxCell>
                <mxCell id="30" value="/addMannschaften/:turnierId" style="html=1;verticalAlign=bottom;endArrow=block;entryX=-0.1;entryY=0.154;entryDx=0;entryDy=0;entryPerimeter=0;" parent="1" source="25" target="27" edge="1">
                    <mxGeometry relative="1" as="geometry">
                        <mxPoint x="310" y="850" as="sourcePoint"/>
                        <mxPoint x="240" y="850" as="targetPoint"/>
                    </mxGeometry>
                </mxCell>
                <mxCell id="31" value="Antwort: bearbeitetes Turnier" style="html=1;verticalAlign=bottom;endArrow=open;dashed=1;endSize=8;entryX=0.9;entryY=0.785;entryDx=0;entryDy=0;entryPerimeter=0;exitX=-0.1;exitY=0.808;exitDx=0;exitDy=0;exitPerimeter=0;" parent="1" source="27" target="25" edge="1">
                    <mxGeometry relative="1" as="geometry">
                        <mxPoint x="310" y="926" as="targetPoint"/>
                        <mxPoint x="260" y="928" as="sourcePoint"/>
                    </mxGeometry>
                </mxCell>
                <mxCell id="32" value="bearbeitetes Turnier in DB speichern" style="html=1;verticalAlign=bottom;endArrow=block;entryX=-0.1;entryY=0.175;entryDx=0;entryDy=0;entryPerimeter=0;exitX=1.2;exitY=0.331;exitDx=0;exitDy=0;exitPerimeter=0;" parent="1" source="27" target="29" edge="1">
                    <mxGeometry relative="1" as="geometry">
                        <mxPoint x="85" y="855.02" as="sourcePoint"/>
                        <mxPoint x="284" y="855.02" as="targetPoint"/>
                    </mxGeometry>
                </mxCell>
                <mxCell id="33" value="Antwort: bearbeitetes Turnier" style="html=1;verticalAlign=bottom;endArrow=open;dashed=1;endSize=8;entryX=1.1;entryY=0.592;entryDx=0;entryDy=0;entryPerimeter=0;exitX=0.1;exitY=0.778;exitDx=0;exitDy=0;exitPerimeter=0;" parent="1" source="29" target="27" edge="1">
                    <mxGeometry relative="1" as="geometry">
                        <mxPoint x="84" y="942.05" as="targetPoint"/>
                        <mxPoint x="284" y="940.04" as="sourcePoint"/>
                    </mxGeometry>
                </mxCell>
                <mxCell id="34" value="" style="shape=umlLifeline;participant=umlActor;perimeter=lifelinePerimeter;whiteSpace=wrap;html=1;container=1;collapsible=0;recursiveResize=0;verticalAlign=top;spacingTop=36;outlineConnect=0;" vertex="1" parent="1">
                    <mxGeometry x="60" y="1110" width="20" height="300" as="geometry"/>
                </mxCell>
                <mxCell id="35" value="" style="html=1;points=[];perimeter=orthogonalPerimeter;" vertex="1" parent="34">
                    <mxGeometry x="5" y="90" width="10" height="130" as="geometry"/>
                </mxCell>
                <mxCell id="36" value=":Controller" style="shape=umlLifeline;perimeter=lifelinePerimeter;whiteSpace=wrap;html=1;container=1;collapsible=0;recursiveResize=0;outlineConnect=0;" vertex="1" parent="1">
                    <mxGeometry x="230" y="1110" width="100" height="300" as="geometry"/>
                </mxCell>
                <mxCell id="37" value="" style="html=1;points=[];perimeter=orthogonalPerimeter;" vertex="1" parent="36">
                    <mxGeometry x="45" y="85" width="10" height="130" as="geometry"/>
                </mxCell>
                <mxCell id="38" value=":Turnier" style="shape=umlLifeline;perimeter=lifelinePerimeter;whiteSpace=wrap;html=1;container=1;collapsible=0;recursiveResize=0;outlineConnect=0;" vertex="1" parent="1">
                    <mxGeometry x="480" y="1110" width="100" height="300" as="geometry"/>
                </mxCell>
                <mxCell id="39" value="" style="html=1;points=[];perimeter=orthogonalPerimeter;" vertex="1" parent="38">
                    <mxGeometry x="45" y="120" width="10" height="52.5" as="geometry"/>
                </mxCell>
                <mxCell id="40" value="/removeMannschaften/:turnierId" style="html=1;verticalAlign=bottom;endArrow=block;entryX=-0.1;entryY=0.154;entryDx=0;entryDy=0;entryPerimeter=0;" edge="1" parent="1" source="35" target="37">
                    <mxGeometry relative="1" as="geometry">
                        <mxPoint x="310" y="1220" as="sourcePoint"/>
                        <mxPoint x="240" y="1220" as="targetPoint"/>
                    </mxGeometry>
                </mxCell>
                <mxCell id="41" value="Antwort: bearbeitetes Turnier" style="html=1;verticalAlign=bottom;endArrow=open;dashed=1;endSize=8;entryX=0.9;entryY=0.785;entryDx=0;entryDy=0;entryPerimeter=0;exitX=-0.1;exitY=0.808;exitDx=0;exitDy=0;exitPerimeter=0;" edge="1" parent="1" source="37" target="35">
                    <mxGeometry relative="1" as="geometry">
                        <mxPoint x="310" y="1296" as="targetPoint"/>
                        <mxPoint x="260" y="1298" as="sourcePoint"/>
                    </mxGeometry>
                </mxCell>
                <mxCell id="42" value="bearbeitetes Turnier in DB speichern" style="html=1;verticalAlign=bottom;endArrow=block;entryX=-0.1;entryY=0.175;entryDx=0;entryDy=0;entryPerimeter=0;exitX=1.2;exitY=0.331;exitDx=0;exitDy=0;exitPerimeter=0;" edge="1" parent="1" source="37" target="39">
                    <mxGeometry relative="1" as="geometry">
                        <mxPoint x="85" y="1225.02" as="sourcePoint"/>
                        <mxPoint x="284" y="1225.02" as="targetPoint"/>
                    </mxGeometry>
                </mxCell>
                <mxCell id="43" value="Antwort: bearbeitetes Turnier" style="html=1;verticalAlign=bottom;endArrow=open;dashed=1;endSize=8;entryX=1.1;entryY=0.592;entryDx=0;entryDy=0;entryPerimeter=0;exitX=0.1;exitY=0.778;exitDx=0;exitDy=0;exitPerimeter=0;" edge="1" parent="1" source="39" target="37">
                    <mxGeometry relative="1" as="geometry">
                        <mxPoint x="84" y="1312.05" as="targetPoint"/>
                        <mxPoint x="284" y="1310.04" as="sourcePoint"/>
                    </mxGeometry>
                </mxCell>
                <mxCell id="44" value="" style="shape=umlLifeline;participant=umlActor;perimeter=lifelinePerimeter;whiteSpace=wrap;html=1;container=1;collapsible=0;recursiveResize=0;verticalAlign=top;spacingTop=36;outlineConnect=0;" vertex="1" parent="1">
                    <mxGeometry x="60" y="1440" width="20" height="300" as="geometry"/>
                </mxCell>
                <mxCell id="45" value="" style="html=1;points=[];perimeter=orthogonalPerimeter;" vertex="1" parent="44">
                    <mxGeometry x="5" y="90" width="10" height="130" as="geometry"/>
                </mxCell>
                <mxCell id="46" value=":Controller" style="shape=umlLifeline;perimeter=lifelinePerimeter;whiteSpace=wrap;html=1;container=1;collapsible=0;recursiveResize=0;outlineConnect=0;" vertex="1" parent="1">
                    <mxGeometry x="230" y="1440" width="100" height="300" as="geometry"/>
                </mxCell>
                <mxCell id="47" value="" style="html=1;points=[];perimeter=orthogonalPerimeter;" vertex="1" parent="46">
                    <mxGeometry x="45" y="85" width="10" height="130" as="geometry"/>
                </mxCell>
                <mxCell id="48" value=":Turnier" style="shape=umlLifeline;perimeter=lifelinePerimeter;whiteSpace=wrap;html=1;container=1;collapsible=0;recursiveResize=0;outlineConnect=0;" vertex="1" parent="1">
                    <mxGeometry x="480" y="1440" width="100" height="300" as="geometry"/>
                </mxCell>
                <mxCell id="49" value="" style="html=1;points=[];perimeter=orthogonalPerimeter;" vertex="1" parent="48">
                    <mxGeometry x="45" y="120" width="10" height="52.5" as="geometry"/>
                </mxCell>
                <mxCell id="50" value="/addGame/:turnierId" style="html=1;verticalAlign=bottom;endArrow=block;entryX=-0.1;entryY=0.154;entryDx=0;entryDy=0;entryPerimeter=0;" edge="1" parent="1" source="45" target="47">
                    <mxGeometry relative="1" as="geometry">
                        <mxPoint x="310" y="1550" as="sourcePoint"/>
                        <mxPoint x="240" y="1550" as="targetPoint"/>
                    </mxGeometry>
                </mxCell>
                <mxCell id="51" value="Antwort: bearbeitetes Turnier" style="html=1;verticalAlign=bottom;endArrow=open;dashed=1;endSize=8;entryX=0.9;entryY=0.785;entryDx=0;entryDy=0;entryPerimeter=0;exitX=-0.1;exitY=0.808;exitDx=0;exitDy=0;exitPerimeter=0;" edge="1" parent="1" source="47" target="45">
                    <mxGeometry relative="1" as="geometry">
                        <mxPoint x="310" y="1626" as="targetPoint"/>
                        <mxPoint x="260" y="1628" as="sourcePoint"/>
                    </mxGeometry>
                </mxCell>
                <mxCell id="52" value="bearbeitetes Turnier in DB speichern" style="html=1;verticalAlign=bottom;endArrow=block;entryX=-0.1;entryY=0.175;entryDx=0;entryDy=0;entryPerimeter=0;exitX=1.2;exitY=0.331;exitDx=0;exitDy=0;exitPerimeter=0;" edge="1" parent="1" source="47" target="49">
                    <mxGeometry relative="1" as="geometry">
                        <mxPoint x="85" y="1555.02" as="sourcePoint"/>
                        <mxPoint x="284" y="1555.02" as="targetPoint"/>
                    </mxGeometry>
                </mxCell>
                <mxCell id="53" value="Antwort: bearbeitetes Turnier" style="html=1;verticalAlign=bottom;endArrow=open;dashed=1;endSize=8;entryX=1.1;entryY=0.592;entryDx=0;entryDy=0;entryPerimeter=0;exitX=0.1;exitY=0.778;exitDx=0;exitDy=0;exitPerimeter=0;" edge="1" parent="1" source="49" target="47">
                    <mxGeometry relative="1" as="geometry">
                        <mxPoint x="84" y="1642.05" as="targetPoint"/>
                        <mxPoint x="284" y="1640.04" as="sourcePoint"/>
                    </mxGeometry>
                </mxCell>
            </root>
        </mxGraphModel>
    </diagram>
</mxfile>